<?xml version="1.0" encoding="utf-8"?>
<!-- Generator: Adobe Illustrator 27.0.1, SVG Export Plug-In . SVG Version: 6.00 Build 0)  -->
<svg version="1.1" id="Calque_1" xmlns="http://www.w3.org/2000/svg" xmlns:xlink="http://www.w3.org/1999/xlink" x="0px" y="0px"
	 viewBox="0 0 595.28 841.89" style="enable-background:new 0 0 595.28 841.89;" xml:space="preserve">
<style type="text/css">
	.st0{fill:#6B42DC;}
	.st1{font-family:'MonumentExtended-Regular';}
	.st2{font-size:80.4383px;}
</style>
<path id="_x35__00000167355885406629009130000006142551279687434143_" class="st0" d="M298.36,247
	c-65.66,0-107.64,35.08-124.79,52.76c-50.05,51.39-62.2,126.84-35.22,189.73h320.01c9.14-21.31,13.99-44.64,13.99-68.49
	C472.36,324.9,394.46,247,298.36,247z M261.33,421c0-20.37,16.49-37.01,37.03-37.01c20.45,0,37.01,16.56,37.01,37.01
	c0,20.33-16.45,37.03-37.01,37.03C277.83,458.03,261.33,441.36,261.33,421z M380.17,458.03h-24.2
	c7.11-11.04,10.87-23.77,10.87-37.03c0-37.82-30.66-68.49-68.49-68.49c-37.83,0-68.49,30.66-68.49,68.49
	c0,13.23,3.74,25.97,10.87,37.03h-24.21c-5.21-11.48-7.96-24.11-7.96-37.03c0-49.59,40.23-89.77,89.79-89.77
	c49.58,0,89.77,40.19,89.77,89.77C388.13,433.94,385.38,446.56,380.17,458.03z M436.01,458.03h-22.18
	c25.15-77.75-33.18-158.27-115.47-158.27c-66.95,0-121.24,54.29-121.24,121.24c0,12.49,1.93,25.14,5.77,37.03h-22.18
	c-3.28-12.09-4.88-24.82-4.88-37.03c0-78.69,63.84-142.53,142.53-142.53c78.72,0,142.53,63.81,142.53,142.53
	C440.89,433.17,439.3,445.9,436.01,458.03z M447.43,510.79c-6.89,11.41-15.03,21.95-24.29,31.46H173.57
	c-9.26-9.51-17.4-20.05-24.29-31.46H447.43z M398.16,563.53c-28.27,19.85-62.68,31.47-99.8,31.47c-37.14,0-71.57-11.64-99.82-31.47
	H398.16z"/>
<text transform="matrix(1 0 0 1 134.2601 713.0527)" class="st0 st1 st2">DAWN</text>
</svg>
